<?xml version='1.0' encoding='UTF-8'?>
<svg xmlns="http://www.w3.org/2000/svg" width="128" height="128" viewBox="0 0 256 256" fill="none">
  <path d="M103.033 45.9393L103.899 125.642C103.918 127.453 103.202 129.212 101.881 130.52L84.5197 147.707C72.4934 159.613 72.4934 178.952 84.5197 190.857L106.488 212.606C118.467 224.465 137.853 224.465 149.832 212.606L171.8 190.857C183.827 178.952 183.827 159.613 171.8 147.707L154.301 130.383C153.017 129.112 152.302 127.411 152.283 125.65L151.416 45.8172C151.343 39.0843 145.886 33.6529 139.153 33.6115L115.448 33.4656C108.551 33.4231 102.958 39.0424 103.033 45.9393Z" fill="#ebbcba" stroke="#524f67" stroke-width="17"/>
</svg>
