<?xml version='1.0' encoding='UTF-8'?>
<svg xmlns="http://www.w3.org/2000/svg" width="128" height="128" viewBox="0 0 256 256" fill="none">
  <path d="m 162.872,195.533 c -13.475,7.749 -29.107,12.187 -45.752,12.187 -50.7437,0 -91.8798,-41.136 -91.8798,-91.88 0,-50.744 41.1361,-91.88 91.8798,-91.88 50.744,0 91.88,41.136 91.88,91.88 0,17.089 -4.677,33.109 -12.813,46.823 l 28.483,28.916 c 9.07,9.206 8.958,24.022 -0.248,33.091 -9.207,9.069 -24.023,8.958 -33.092,-0.249 z" fill="#11111b"/>
  <path fill-rule="evenodd" clip-rule="evenodd" d="m 179.2,115.84 c 0,34.286 -27.794,62.08 -62.08,62.08 -34.2856,0 -62.0798,-27.794 -62.0798,-62.08 0,-34.2859 27.7942,-62.08 62.0798,-62.08 34.286,0 62.08,27.7941 62.08,62.08 z m -14.229,57.599 c -12.975,10.791 -29.655,17.281 -47.851,17.281 -41.3549,0 -74.8798,-33.525 -74.8798,-74.88 0,-41.3551 33.5249,-74.88 74.8798,-74.88 41.355,0 74.88,33.5249 74.88,74.88 0,18.551 -6.746,35.527 -17.919,48.607 l 38.479,39.062 c 2.48,2.518 2.45,6.57 -0.068,9.05 -2.519,2.481 -6.571,2.45 -9.051,-0.068 z" fill="#b4befe"/>
  <path fill-rule="evenodd" clip-rule="evenodd" d="m 76.83611,115.52 c 0,-3.51526 2.93323,-6.36425 6.55149,-6.36425 h 66.82553 c 3.61765,0 6.55149,2.84899 6.55149,6.36425 0,3.51526 -2.93384,6.36425 -6.55149,6.36425 H 83.3876 c -3.61826,0 -6.55149,-2.84899 -6.55149,-6.36425 z" fill="#b4befe" stroke="#b4befe" stroke-width="8.07149" stroke-linecap="round"/>
</svg>
